<svg width="38" height="39" viewBox="0 0 38 39" fill="none" xmlns="http://www.w3.org/2000/svg">
<circle cx="19" cy="19.5" r="19" fill="#E8F0F5"/>
<g clip-path="url(#clip0_1_627)">
<mask id="mask0_1_627" style="mask-type:luminance" maskUnits="userSpaceOnUse" x="9" y="9" width="20" height="21">
<path d="M29 9.5H9V29.5H29V9.5Z" fill="white"/>
</mask>
<g mask="url(#mask0_1_627)">
<path d="M28.2675 17.0553L21.9467 10.7336C21.1644 9.95364 20.1047 9.51562 19 9.51562C17.8953 9.51562 16.8356 9.95364 16.0533 10.7336L9.73251 17.0553C9.49953 17.2868 9.31482 17.5622 9.18908 17.8656C9.06334 18.169 8.99907 18.4944 9.00001 18.8228V27.0036C9.00001 27.6667 9.2634 28.3026 9.73224 28.7714C10.2011 29.2403 10.837 29.5036 11.5 29.5036H26.5C27.1631 29.5036 27.7989 29.2403 28.2678 28.7714C28.7366 28.3026 29 27.6667 29 27.0036V18.8228C29.0009 18.4944 28.9367 18.169 28.8109 17.8656C28.6852 17.5622 28.5005 17.2868 28.2675 17.0553ZM21.5 27.837H16.5V24.5586C16.5 23.8956 16.7634 23.2597 17.2322 22.7909C17.7011 22.322 18.337 22.0586 19 22.0586C19.6631 22.0586 20.2989 22.322 20.7678 22.7909C21.2366 23.2597 21.5 23.8956 21.5 24.5586V27.837ZM27.3333 27.0036C27.3333 27.2247 27.2455 27.4366 27.0893 27.5929C26.933 27.7492 26.721 27.837 26.5 27.837H23.1667V24.5586C23.1667 23.4536 22.7277 22.3938 21.9463 21.6124C21.1649 20.831 20.1051 20.392 19 20.392C17.8949 20.392 16.8351 20.831 16.0537 21.6124C15.2723 22.3938 14.8333 23.4536 14.8333 24.5586V27.837H11.5C11.279 27.837 11.067 27.7492 10.9108 27.5929C10.7545 27.4366 10.6667 27.2247 10.6667 27.0036V18.8228C10.6674 18.602 10.7552 18.3903 10.9108 18.2337L17.2317 11.9145C17.7014 11.4469 18.3372 11.1844 19 11.1844C19.6628 11.1844 20.2986 11.4469 20.7683 11.9145L27.0892 18.2361C27.2442 18.3922 27.3319 18.6028 27.3333 18.8228V27.0036Z" fill="#868686"/>
</g>
</g>
<defs>
<clipPath id="clip0_1_627">
<rect width="20" height="20" fill="white" transform="translate(9 9.5)"/>
</clipPath>
</defs>
</svg>
